# xmcd
#
# Track frame offsets: 
#        150
#        14042
#        27549
#        43669
#        55151
#        70758
#        85363
#        98870
#        112827
#        125884
#        135768
#        142297
#        151454
#        158232
#        163413
#
# Disc length: 2273 seconds
#
# Revision: 0
# Processed by: cddbd v1.5.1PL2 Copyright (c) Steve Scherf et al.
# Submitted via: ExactAudioCopy v0.95a4
#
DISCID=d708df0f
DTITLE=Gipsy Fint - Mambo pa capa
DYEAR=1900
DGENRE=A Cappella
TTITLE0=Mambo pa capa
TTITLE1=Le Tasse
TTITLE2=Il superenalotto
TTITLE3=Muchacha
TTITLE4=P'appari P'appara
TTITLE5=Que calor
TTITLE6=Varcatur
TTITLE7=La spagnola
TTITLE8=Serenata malata
TTITLE9=Atto livello
TTITLE10=Armanduccio
TTITLE11=Viagra blues
TTITLE12=Alfatango
TTITLE13=O Moicano
TTITLE14=Nun me movo
EXTD=
EXTT0=
EXTT1=
EXTT2=
EXTT3=
EXTT4=
EXTT5=
EXTT6=
EXTT7=
EXTT8=
EXTT9=
EXTT10=
EXTT11=
EXTT12=
EXTT13=
EXTT14=
PLAYORDER=
